<svg width="24" height="24" viewBox="0 0 21 20" fill="#a53232" xmlns="http://www.w3.org/2000/svg">
    <path d="M9.125 17.3242C9.125 18.4414 8.56641 19 7.44922 19H1.73047C0.644531 19 0.101562 18.4414 0.101562 17.3242V2.34766C0.101562 1.22266 0.644531 0.660156 1.73047 0.660156H7.44922C8.56641 0.660156 9.125 1.22266 9.125 2.34766V6.63672H6.39453V3.01562H2.84375V16.6445H6.39453V12.7891H9.125V17.3242ZM20.4102 0.660156L16.8945 19.0234H14.1641L10.6602 0.660156H13.4141L15.4648 13.2344C15.4805 13.5938 15.5039 14.1172 15.5352 14.8047C15.5273 14.4453 15.5508 13.9219 15.6055 13.2344L17.668 0.660156H20.4102Z" fill="white" />
</svg>